<mxfile host="app.diagrams.net" modified="2023-06-21T16:41:12.900Z" agent="Mozilla/5.0 (Macintosh; Intel Mac OS X 10_15_7) AppleWebKit/537.36 (KHTML, like Gecko) Chrome/111.0.0.0 Safari/537.36" version="21.5.0" etag="1ufIwHstu-BHG-fW4FaR" type="github">
  <diagram name="第 1 页" id="70dCRDNLvwugq-4PkTFn">
    <mxGraphModel>
      <root>
        <mxCell id="0" />
        <mxCell id="1" parent="0" />
      </root>
    </mxGraphModel>
  </diagram>
</mxfile>
